PathFileType	4	(X/Y/Z)	13_coords_data.trc
DataRate	CameraRate	NumFrames	NumMarkers	Units	OrigDataRate	OrigDataStartFrame	OrigNumFrames
30.0	30.0	9	21	m	30.0	10	66
Frame#	Time	THUMB_TIP	THUMB_IP	THUMB_MCP	THUMB_CMC	INDEX_TIP	INDEX_DIP	INDEX_PIP	INDEX_MCP	MIDDLE_TIP	MIDDLE_DIP	MIDDLE_PIP	MIDDLE_MCP	RING_TIP	RING_DIP	RING_PIP	RING_MCP	PINKY_TIP	PINKY_DIP	PINKY_PIP	PINKY_MCP	WRIST
X1	Y1	Z1	X2	Y2	Z2	X3	Y3	Z3	X4	Y4	Z4	X5	Y5	Z5	X6	Y6	Z6	X7	Y7	Z7	X8	Y8	Z8	X9	Y9	Z9	X10	Y10	Z10	X11	Y11	Z11	X12	Y12	Z12	X13	Y13	Z13	X14	Y14	Z14	X15	Y15	Z15	X16	Y16	Z16	X17	Y17	Z17	X18	Y18	Z18	X19	Y19	Z19	X20	Y20	Z20	X21	Y21	Z21
8	0.2999999999999987	0.4904932002952879	-0.03097512939271796	-0.1710661634577415	0.4882272834805058	-0.033320511179761425	-0.14832050881204062	0.4723879904605769	-0.03500080313150411	-0.12157890423068207	0.4715887746884229	-0.03341671568701532	-0.07700602098180809	0.5704262591257748	0.027206759960688	-0.16808628429318695	0.5548124601666232	0.02536187751816077	-0.15909708572843984	0.5342368934369308	0.01998885433950659	-0.14568863657599773	0.5066172243397389	-0.00026398990463838423	-0.12037831708010782	0.596755999793068	0.042007052375596765	-0.13547964955338476	0.5804455799040713	0.03734041560244139	-0.12913987792721004	0.5543615696394154	0.029294905111216574	-0.11892695868495029	0.5184201537837599	0.009230842718155774	-0.10155468342872087	0.6048849202782287	0.026348700069653952	-0.11143821897483175	0.5882944593187107	0.024748445035816746	-0.10456829983575977	0.5653412447477888	0.021479064002698944	-0.09547758657873129	0.5295537561419169	0.00733883116747347	-0.08306669182250159	0.6066063926990706	-0.004515258267285938	-0.06427735162948434	0.5895622351139294	-0.003394004959011321	-0.06316403081697952	0.5686163856907227	-0.0020797693805356676	-0.06256720941603766	0.5325775009878976	-0.003325843732519318	-0.06329490377894653	0.46228308100186094	-0.023011742144276925	-0.051989820119430985
9	0.33333333333333187	0.49096120021970696	-0.030793295478217186	-0.170921388419718	0.488590459576171	-0.0331992206082804	-0.14819274760972634	0.47257951240764695	-0.03495910463568308	-0.12155870212322872	0.4716062756843033	-0.03344727153983251	-0.07698676957627015	0.5706715270291658	0.026827146166221394	-0.16790326569196207	0.555011458588117	0.025133602809253697	-0.1589649119665978	0.5343590278719119	0.019921920763557477	-0.1456110620061214	0.5066256138178136	-0.0002664026345138293	-0.12037368026238993	0.5970562809017425	0.04133666091978894	-0.13538468958538108	0.5806844039525692	0.03688188757644184	-0.12905091980581607	0.5545146885248493	0.029083300075333218	-0.11886575523082188	0.518433871910569	0.009231367176937622	-0.10153880069044541	0.6050854756259223	0.025424883740296056	-0.11140753422837946	0.5884768229745259	0.024114592243990818	-0.104520169471088	0.5654760379152028	0.021172853126169122	-0.09543776689151129	0.5295636052803521	0.007319910200275781	-0.0830638431589501	0.6065978403551454	-0.005544938394974053	-0.0645960887185586	0.5895786538724908	-0.0041583471508654934	-0.06340249909461615	0.5686565427134116	-0.0025476821908664293	-0.06270748684021532	0.5326036459139901	-0.0034106488087036757	-0.06327965114071632	0.4622830810018609	-0.023011742144276925	-0.051989820119430985
10	0.3666666666666651	0.49144830928387573	-0.030794725761160047	-0.17076962087588227	0.48895072975937925	-0.03320223266584588	-0.1480547357336962	0.4727665757352621	-0.03498317065483192	-0.12152698764979275	0.47164268273815596	-0.03348300345093336	-0.07695820526916897	0.5709232524047316	0.02643402654110072	-0.1677188567928865	0.5552191518648231	0.0248832298428453	-0.15883199818969457	0.5344840551013627	0.019831615192770546	-0.1455449072877295	0.5066486361427516	-0.00028994038788954235	-0.12036657242592785	0.5973195732953942	0.04073307344248944	-0.13530489783644228	0.5808956605257531	0.036461181269727416	-0.1289798660895245	0.5546497024975365	0.02889029422061029	-0.11881911284625513	0.5184564764886507	0.00921772419660416	-0.101522052381532	0.6052468824540698	0.024645222834073777	-0.11136952526258403	0.5886230566676944	0.023588377232079294	-0.10447521647940694	0.565585056391544	0.020924376585262805	-0.09540142880116287	0.5295722412173969	0.007307498892042741	-0.08305725531240249	0.6065729805644852	-0.006373266944763589	-0.06485325478993986	0.5895772582753482	-0.004784482702387072	-0.06357999578183948	0.5686806705917019	-0.002900927177846069	-0.06280742813713047	0.5326200443077785	-0.0034579630463360544	-0.06325952774167898	0.4622830810018609	-0.023011742144276925	-0.051989820119430985
11	0.39999999999999825	0.4918649090490312	-0.030941547730523822	-0.1706466745667179	0.4892306304571386	-0.033312112879535505	-0.1479433488813785	0.4728974269339792	-0.03504927493724597	-0.12150419740754526	0.4716728746138064	-0.03349995191596433	-0.07693974891111599	0.5711121508922254	0.026051601108667666	-0.1676056144138352	0.5553742689437415	0.024635297116782695	-0.15875614240822067	0.5345827841873179	0.01971633688417751	-0.14550745096893314	0.5066493344605969	-0.000333620615162733	-0.12038061900309616	0.5975266096304435	0.040179043823862504	-0.1352966751461352	0.5810625476424074	0.036065103700907875	-0.12897131669630435	0.5547597312758392	0.028686543327870018	-0.11881610877090787	0.5184653153124608	0.009193599135060682	-0.10152771909536917	0.6053658441815711	0.02394225757629087	-0.11139869643706735	0.5887326034721618	0.023096084449005017	-0.10449802295243504	0.5656680288638727	0.020681985655230162	-0.09542181756953605	0.5295729358802621	0.007281915707985864	-0.08308069841795684	0.606539310632475	-0.0070591631247699516	-0.06510490854869455	0.5895670897747983	-0.005276475243943701	-0.06377609589154587	0.568692599113072	-0.003190839508529053	-0.062928875617554	0.5326277745670482	-0.0034945797710324022	-0.06327474165731939	0.4622830810018609	-0.023011742144276925	-0.051989820119430985
12	0.43333333333333146	0.4922121069638502	-0.03129051716354592	-0.1705469523283148	0.4894409635589889	-0.033569580199191096	-0.14785055094154753	0.47298694915676914	-0.035197582207859957	-0.12147944896397911	0.4716950734351346	-0.033523641060593246	-0.0769214084083697	0.5712546341151621	0.025671766916929184	-0.16755065349030773	0.5554882187660917	0.024377118453069446	-0.15873339584432622	0.5346579144957735	0.01958035923367618	-0.14550088444258802	0.5066419761553516	-0.0003933169759823274	-0.1204051566871035	0.5976763922744193	0.03969720264959997	-0.13533488523562487	0.5811820488752322	0.0357163150417632	-0.1290032843572163	0.554836052626765	0.028495582837493538	-0.11884655958443713	0.5184567401293692	0.009161340513249794	-0.10155839551290458	0.6054482091181357	0.023365677403209495	-0.11144423465811859	0.588806274614474	0.02269110578752831	-0.10454561384587258	0.565723454600426	0.020484612767596277	-0.09546294971291824	0.5295621850526927	0.007270324769593772	-0.08311523691248301	0.6064933375257291	-0.007516929507383585	-0.06527853432721387	0.5895389796750579	-0.005595494884881536	-0.06391550869912421	0.5686833734983341	-0.0033482906233326393	-0.0630178545294785	0.5326168597517997	-0.003466264670670016	-0.06329375178427177	0.4622830810018609	-0.023011742144276925	-0.051989820119430985
13	0.4666666666666647	0.4925020160888925	-0.031788903389537326	-0.17046786487272925	0.48958616055110304	-0.033921431327512463	-0.14777535264784547	0.4730338132429614	-0.03539282402317845	-0.12145663683331909	0.47171460374809115	-0.03354168979894878	-0.07690640688562389	0.5713850978990429	0.025294405904842776	-0.1675182757584775	0.5555915619689415	0.02411452913151846	-0.15873350976134554	0.5347291656536037	0.019420023139795628	-0.14551489158562625	0.5066289927915888	-0.0004526446357209224	-0.12043315610721839	0.5977869120682695	0.03929493646495674	-0.13539329897508923	0.5812711774638872	0.03542021450687116	-0.12905160833101514	0.5548927157126977	0.028324700124694235	-0.1188909006148493	0.5184384371351398	0.009142363355864824	-0.10159143673653714	0.6054839934107916	0.022947123792069868	-0.11150790579563008	0.5888380456387697	0.022402934651807094	-0.10460745066928234	0.565741216885226	0.02036638625105025	-0.09552070476434738	0.5295391288704425	0.007289023204752887	-0.08314685196397764	0.606437522859885	-0.007740199085959576	-0.0654019997424603	0.5894962772954782	-0.005730024173220549	-0.06400436046615832	0.5686556166102854	-0.0033636928288209855	-0.06306662000463836	0.5325886359076605	-0.003370828752481181	-0.06330390269485797	0.4622830810018609	-0.023011742144276925	-0.051989820119430985
14	0.4999999999999978	0.49275255127289197	-0.03226007962870048	-0.1704058996217383	0.4897035849668414	-0.03425014618646027	-0.14771794159197593	0.4730750399152351	-0.035571862006188115	-0.12143934656182676	0.4717309363524026	-0.03354846792003563	-0.0768973521971319	0.5715096712177268	0.024960078096446403	-0.1674826328489073	0.5556930136142175	0.023884079399444702	-0.1587261741436199	0.5347985760607394	0.019280749171525335	-0.14552611114617442	0.5066231187709435	-0.0004921184175943338	-0.12044995897296362	0.59787629491225	0.038970935272943485	-0.1354431514914497	0.5813467499741011	0.03517864531599002	-0.12908762782930316	0.5549435219928718	0.028184402868212333	-0.1189210318034476	0.51842323896183	0.009136067106318646	-0.10161271723978316	0.6054958010652887	0.02267783572899562	-0.11155977267271822	0.5888446998022275	0.022229691020198894	-0.10466484750653526	0.5657429597857689	0.02030281671801526	-0.09556667501775817	0.529513969195981	0.007333894079942005	-0.0831574800215974	0.6063853667387236	-0.007753193785318024	-0.06545705170034144	0.5894524062299012	-0.005690225956715755	-0.06403613222872695	0.5686205128779324	-0.0032541523646825166	-0.06308230633979706	0.5325533625091674	-0.003238034503642906	-0.06329172336740885	0.46228308100186083	-0.023011742144276925	-0.051989820119430985
15	0.533333333333331	0.4929919237891973	-0.032651414457379846	-0.1703392258249894	0.48981122874764027	-0.0345171129987456	-0.14765878605841165	0.47311939567503875	-0.035735668528053766	-0.12141535200152054	0.4717573492340156	-0.03356360714668538	-0.07688090489764299	0.5716888981496455	0.024655165182444705	-0.16738029311982316	0.5558479307725375	0.023664041252651424	-0.15865782638654224	0.5349069385554412	0.019155706056837918	-0.1454988145799625	0.5066478248682698	-0.000525995527373313	-0.12044508810333676	0.5979848037773574	0.038711811657346606	-0.13541645460804286	0.5814430051519882	0.03498935532254677	-0.12905153378581402	0.5550123129851012	0.02807525087844709	-0.11890149825310059	0.5184262974552349	0.009142723931434005	-0.10160494333459147	0.6055169276994473	0.022538005325097088	-0.11151438228123056	0.588860379930451	0.022158197553222125	-0.1046285154167339	0.5657481164133109	0.020306285978526573	-0.09554150943930773	0.5294993725045247	0.007402989836301832	-0.08312159206030312	0.6063423437983521	-0.00759476094810807	-0.06537783569991495	0.5894129989523968	-0.005508158840433097	-0.06394836911024804	0.5685826765743318	-0.0030540824744115236	-0.06300645732264776	0.5325156323383802	-0.0030714007497605333	-0.0632333298843284	0.4622830810018609	-0.023011742144276925	-0.051989820119430985
16	0.5666666666666642	0.49323102903825017	-0.032954026457320706	-0.17027685616000715	0.4899166028446515	-0.03471605600316552	-0.14760727674426244	0.47316330625027	-0.03585395468492736	-0.12139941075310001	0.4717933503198482	-0.03355296956635179	-0.07687168132263389	0.5718856807072417	0.024420370576114347	-0.16724499489577277	0.5560206961310215	0.02350092187874553	-0.15855840301580043	0.5350373706300289	0.019071033107820767	-0.14544024882412265	0.5066800544924264	-0.0005106854448549969	-0.12041915744113418	0.5981228952424906	0.038470431499707414	-0.13533069848827894	0.5815651761147139	0.03481369771379361	-0.1289690764227508	0.5551067540134905	0.027975215358987948	-0.11884007800254603	0.5184426300440649	0.009172935328815801	-0.10156685594580228	0.6055675749895695	0.022363224080003685	-0.11141279743381538	0.5889015426230564	0.022054734037075252	-0.10454634281357988	0.5657742708505896	0.02029230964401363	-0.09547974810436266	0.5294939743496223	0.007478328765852971	-0.08305948990028167	0.6063017243013975	-0.007489643851233185	-0.06524548646515427	0.5893754972236904	-0.005374687703394221	-0.06382077687839272	0.5685497765305322	-0.0028739145700474866	-0.06290017362720868	0.5324829484038414	-0.0029138291745388623	-0.06315662382529075	0.4622830810018609	-0.023011742144276925	-0.051989820119430985
